<?xml version="1.0" encoding="utf-8"?>
<!-- Generator: Adobe Illustrator 15.0.2, SVG Export Plug-In  -->
<!DOCTYPE svg PUBLIC "-//W3C//DTD SVG 1.1//EN" "http://www.w3.org/Graphics/SVG/1.1/DTD/svg11.dtd" [
	<!ENTITY ns_flows "http://ns.adobe.com/Flows/1.0/">
]>
<svg version="1.1"
	 xmlns="http://www.w3.org/2000/svg" xmlns:xlink="http://www.w3.org/1999/xlink" xmlns:a="http://ns.adobe.com/AdobeSVGViewerExtensions/3.0/"
	 x="0px" y="0px" width="512px" height="68px" viewBox="0 0.725 512 68" overflow="visible" enable-background="new 0 0.725 512 68"
	 xml:space="preserve">
<defs>
</defs>
<path d="M178.211,2.261h-52.208c-0.701,0-1.272,0.571-1.272,1.272V13.2c0,0.7,0.572,1.272,1.272,1.272h4.686
	c0.701,0,1.269-0.572,1.269-1.272v-3.107h13.867v47.601h-5.422c-0.7,0-1.277,0.57-1.277,1.271v4.818
	c0,0.704,0.577,1.273,1.277,1.273h23.274c0.706,0,1.277-0.569,1.277-1.273v-4.818c0-0.701-0.572-1.271-1.277-1.271h-5.417V10.093
	h13.856V13.2c0,0.7,0.577,1.272,1.272,1.272h4.822c0.701,0,1.269-0.572,1.269-1.272V3.534C179.48,2.832,178.912,2.261,178.211,2.261
	z"/>
<path d="M497.023,28.956c-1.985-1.132-4.17-2.402-6.519-3.761l-2.738-1.589c-4.108-2.414-5.23-3.857-5.23-6.726
	c0-4.532,3.49-7.459,8.89-7.459c3.273,0,5.402,0.627,9.681,2.889v2.831c0,0.7,0.574,1.272,1.282,1.272h4.812
	c0.704,0,1.271-0.572,1.271-1.272V6.859c0-0.413-0.202-0.807-0.551-1.047c-0.26-0.175-6.51-4.415-17.41-4.415
	c-11.167,0-19.91,7.95-19.91,18.095c0,8.292,4.057,13.12,16.083,19.139c10.332,5.221,13.646,8.299,13.646,12.679
	c0,4.329-4.188,7.468-9.949,7.468c-4.049,0-7.333-1.023-12.022-3.753v-3.137c0-0.702-0.571-1.273-1.27-1.273h-4.829
	c-0.697,0-1.269,0.571-1.269,1.273V63.81c0,0.702,0.571,1.269,1.269,1.269h4.829c0.644,0,1.168-0.477,1.261-1.091
	c4.67,2.361,8.974,3.462,13.475,3.462C503.33,67.45,512,59.507,512,48.965C512,39.931,508.636,35.441,497.023,28.956z"/>
<path d="M432.983,3.927c0,0-1.496-3.464-6.401-3.927l-25.221,57.694h-2.67c-0.699,0-1.275,0.568-1.275,1.273v4.827
	c0,0.7,0.576,1.274,1.275,1.274h13.878c0.704,0,1.271-0.574,1.271-1.274v-4.827c0-0.705-0.566-1.273-1.271-1.273h-2.561
	l5.138-11.667h22.047l4.816,11.667h-2.38c-0.704,0-1.269,0.568-1.269,1.273v4.827c0,0.7,0.564,1.274,1.269,1.274h16.979
	c0.425,0,0.824-0.212,1.062-0.571c0.233-0.357,0.272-0.805,0.113-1.193L432.983,3.927z M427.725,23.198
	c0.836,1.958,6.334,15.191,6.334,15.191h-15.591l7.422-17.153C425.89,21.236,426.892,21.24,427.725,23.198z"/>
<path d="M43.564,53.305h-4.817c-0.705,0-1.273,0.571-1.273,1.272v2.726H17.856V37.029H29.21v2.324c0,0.701,0.572,1.273,1.273,1.273
	h4.826c0.705,0,1.276-0.572,1.276-1.273V27.199c0-0.751-0.552-1.277-1.242-1.277l-4.893,0.004c-0.693,0.015-1.241,0.575-1.241,1.273
	v2.063H17.856V10.03h18.831v2.594c0,0.708,0.576,1.28,1.276,1.28h4.694c0.701,0,1.27-0.572,1.27-1.28V3.545
	c0-0.7-0.568-1.272-1.27-1.272H11.723c-1.803,0-6.33,1.49-6.33,5.411c0,3.919,0,50.011,0,50.011H1.272
	C0.568,57.694,0,58.264,0,58.965v4.829c0,0.698,0.568,1.271,1.272,1.271h42.292c0.704,0,1.281-0.573,1.281-1.271v-9.217
	C44.845,53.876,44.268,53.305,43.564,53.305z"/>
<path d="M235.455,53.305h-4.826c-0.704,0-1.27,0.571-1.27,1.272v2.726h-19.614V37.029h11.356v2.324c0,0.701,0.567,1.273,1.269,1.273
	h4.826c0.705,0,1.275-0.572,1.275-1.273V27.199c0-0.751-0.561-1.277-1.245-1.277l-4.893,0.004c-0.694,0.015-1.232,0.575-1.232,1.273
	v2.063h-11.356V10.03h18.827v2.594c0,0.708,0.569,1.28,1.276,1.28h4.687c0.705,0,1.278-0.572,1.278-1.28V3.545
	c0-0.7-0.573-1.272-1.278-1.272h-30.923c-1.802,0-6.329,1.49-6.329,5.411c0,3.919,0,50.011,0,50.011h-4.117
	c-0.704,0-1.278,0.57-1.278,1.271v4.829c0,0.698,0.574,1.271,1.278,1.271h42.29c0.7,0,1.272-0.573,1.272-1.271v-9.217
	C236.727,53.876,236.154,53.305,235.455,53.305z"/>
<path d="M357.606,2.289H341.49c-1.595,0-6.257,1.469-6.257,5.412c0,5.104-0.013,50.011-0.013,50.011h-5.586
	c-0.701,0-1.272,0.57-1.272,1.266v4.833c0,0.705,0.571,1.269,1.272,1.269h27.972c18.708,0,32.818-13.492,32.818-31.393
	C390.425,16.073,376.014,2.289,357.606,2.289z M356.566,57.32h-8.896V10.047h9.033c11.195,0,19.968,10.441,19.968,23.775
	C376.671,47.219,368.023,57.32,356.566,57.32z"/>
<path d="M304.236,66.109c3.614,0,5.707-1.461,5.963-3.818V10.03h4.123c0.704,0,1.274-0.571,1.274-1.272V3.541
	c0-0.7-0.57-1.272-1.274-1.272H296.88c-0.699,0-1.27,0.572-1.27,1.272v5.217c0,0.702,0.57,1.272,1.27,1.272h4.254v32.604
	c0,0-34.982-40.367-35.353-40.367c-1.713-0.007-6.404,1.468-6.404,5.404l0.024,50.022h-4.1c-0.706,0-1.276,0.57-1.276,1.271v4.829
	c0,0.702,0.57,1.271,1.276,1.271h17.438c0.698,0,1.27-0.569,1.27-1.271v-4.829c0-0.701-0.571-1.271-1.274-1.271l-4.25,0.003V23.945
	L304.236,66.109z"/>
<path fill="#DD4814" d="M114.428,57.697h-4.194l-18.728-25.15l22.557-30.292h-12.474L85.27,24.171L68.951,2.255H53.465
	l20.109,27.007h7.905l-26.66,35.803h12.474l16.471-22.12l16.47,22.12l14.194,0.01c0.704,0,1.28-0.577,1.28-1.28v-4.817
	C115.708,58.273,115.132,57.697,114.428,57.697z"/>
</svg>
